<?xml version="1.0" encoding="UTF-8"?>
<svg id="Layer_1" data-name="Layer 1" xmlns="http://www.w3.org/2000/svg" xmlns:xlink="http://www.w3.org/1999/xlink" viewBox="0 0 408.97 378.46">
  <defs>
    <style>
      .cls-1 {
        fill: url(#linear-gradient-12);
      }

      .cls-1, .cls-2, .cls-3, .cls-4, .cls-5, .cls-6, .cls-7, .cls-8, .cls-9, .cls-10, .cls-11, .cls-12, .cls-13, .cls-14, .cls-15, .cls-16, .cls-17, .cls-18, .cls-19, .cls-20, .cls-21 {
        stroke-width: 0px;
      }

      .cls-2 {
        fill: url(#linear-gradient);
      }

      .cls-3 {
        fill: url(#linear-gradient-6);
      }

      .cls-22, .cls-23 {
        font-family: SimplifiedArabic, 'Simplified Arabic';
      }

      .cls-23 {
        font-size: 19.34px;
      }

      .cls-24 {
        font-family: SimplifiedArabic-Bold, 'Simplified Arabic';
        font-weight: 700;
      }

      .cls-4 {
        fill: url(#linear-gradient-15);
      }

      .cls-5 {
        fill: url(#linear-gradient-11);
      }

      .cls-6 {
        fill: url(#linear-gradient-5);
      }

      .cls-7 {
        fill: url(#linear-gradient-13);
      }

      .cls-8 {
        fill: url(#linear-gradient-14);
      }

      .cls-9 {
        fill: url(#linear-gradient-2);
      }

      .cls-10 {
        fill: url(#linear-gradient-7);
      }

      .cls-11 {
        fill: url(#radial-gradient-2);
      }

      .cls-12 {
        fill: url(#linear-gradient-3);
      }

      .cls-13 {
        fill: url(#radial-gradient-5);
      }

      .cls-14 {
        fill: url(#linear-gradient-9);
      }

      .cls-15 {
        fill: url(#radial-gradient);
      }

      .cls-16 {
        fill: url(#linear-gradient-8);
      }

      .cls-17 {
        fill: url(#linear-gradient-10);
      }

      .cls-18 {
        fill: url(#radial-gradient-3);
      }

      .cls-25 {
        font-size: 50.58px;
      }

      .cls-19 {
        fill: url(#linear-gradient-4);
      }

      .cls-20 {
        fill: #3fa9f5;
      }

      .cls-21 {
        fill: url(#radial-gradient-4);
      }
    </style>
    <radialGradient id="radial-gradient" cx="176" cy="145.76" fx="176" fy="145.76" r="158.09" gradientTransform="translate(-10.89 2.62) scale(1.22 .94)" gradientUnits="userSpaceOnUse">
      <stop offset="0" stop-color="#fff"/>
      <stop offset=".47" stop-color="#00b8f8"/>
      <stop offset="1" stop-color="#0171ea"/>
    </radialGradient>
    <linearGradient id="linear-gradient" x1="317.01" y1="144.25" x2="172.23" y2="137.45" gradientUnits="userSpaceOnUse">
      <stop offset="0" stop-color="#cce0f4"/>
      <stop offset=".1" stop-color="#c2def4"/>
      <stop offset=".27" stop-color="#a9dbf5"/>
      <stop offset=".48" stop-color="#7fd5f6"/>
      <stop offset=".73" stop-color="#45cef9"/>
      <stop offset="1" stop-color="#00c5fc"/>
    </linearGradient>
    <linearGradient id="linear-gradient-2" x1="111.81" y1="125.11" x2="12.73" y2="120.45" gradientUnits="userSpaceOnUse">
      <stop offset="0" stop-color="#cce0f4"/>
      <stop offset=".04" stop-color="#c2dcf2"/>
      <stop offset=".11" stop-color="#a9d2ee"/>
      <stop offset=".2" stop-color="#7fc2e7"/>
      <stop offset=".3" stop-color="#46abdd"/>
      <stop offset=".37" stop-color="#1e9cd7"/>
      <stop offset=".71" stop-color="#0075be"/>
      <stop offset=".94" stop-color="#005b97"/>
    </linearGradient>
    <radialGradient id="radial-gradient-2" cx="89.26" cy="179.9" fx="89.26" fy="179.9" r="14.28" gradientTransform="translate(-10.89 2.62) scale(1.22 .94)" gradientUnits="userSpaceOnUse">
      <stop offset="0" stop-color="#fff"/>
      <stop offset=".69" stop-color="#3fa9f5"/>
    </radialGradient>
    <linearGradient id="linear-gradient-3" x1="101.32" y1="179.24" x2="104.43" y2="179.24" gradientUnits="userSpaceOnUse">
      <stop offset="0" stop-color="#fff"/>
      <stop offset="1" stop-color="#fff" stop-opacity=".3"/>
    </linearGradient>
    <linearGradient id="linear-gradient-4" x1="103.94" y1="175" x2="106" y2="175" xlink:href="#linear-gradient-3"/>
    <linearGradient id="linear-gradient-5" x1="88.79" y1="172.77" x2="97.26" y2="172.77" gradientUnits="userSpaceOnUse">
      <stop offset="0" stop-color="#fff"/>
      <stop offset=".76" stop-color="#fff" stop-opacity=".3"/>
    </linearGradient>
    <radialGradient id="radial-gradient-3" cx="61.7" cy="202.78" fx="61.7" fy="202.78" r="9.94" xlink:href="#radial-gradient-2"/>
    <linearGradient id="linear-gradient-6" x1="66.69" y1="198.76" x2="68.86" y2="198.76" xlink:href="#linear-gradient-3"/>
    <linearGradient id="linear-gradient-7" x1="68.51" y1="195.8" x2="69.95" y2="195.8" xlink:href="#linear-gradient-3"/>
    <linearGradient id="linear-gradient-8" x1="57.96" y1="194.25" x2="63.86" y2="194.25" xlink:href="#linear-gradient-5"/>
    <radialGradient id="radial-gradient-4" cx="34.25" fx="34.25" r="14.28" xlink:href="#radial-gradient-2"/>
    <linearGradient id="linear-gradient-9" x1="34" x2="37.11" xlink:href="#linear-gradient-3"/>
    <linearGradient id="linear-gradient-10" x1="36.62" y1="175" x2="38.68" y2="175" xlink:href="#linear-gradient-3"/>
    <linearGradient id="linear-gradient-11" x1="21.47" x2="29.94" xlink:href="#linear-gradient-5"/>
    <radialGradient id="radial-gradient-5" cx="62.05" cy="159.18" fx="62.05" fy="159.18" r="37.2" xlink:href="#radial-gradient-2"/>
    <linearGradient id="linear-gradient-12" x1="72.79" y1="170.64" x2="80.91" y2="170.64" xlink:href="#linear-gradient-3"/>
    <linearGradient id="linear-gradient-13" x1="79.63" y1="159.58" x2="84.99" y2="159.58" xlink:href="#linear-gradient-3"/>
    <linearGradient id="linear-gradient-14" x1="40.14" y1="153.78" x2="62.22" y2="153.78" xlink:href="#linear-gradient-5"/>
    <linearGradient id="linear-gradient-15" x1="491.77" y1="123.93" x2="-266" y2="314.89" gradientUnits="userSpaceOnUse">
      <stop offset="0" stop-color="#fff"/>
      <stop offset="1" stop-color="#06c3fb"/>
    </linearGradient>
  </defs>
  <g>
    <g>
      <path class="cls-15" d="m408.97,140.19c0,25.53-8.85,49.47-24.32,70.1-15.95,21.29-38.96,39.03-66.56,51.34-26.74,11.93-57.78,18.76-90.88,18.76H12.96c-7.15,0-12.96-4.48-12.96-10v-50.11c0-5.52,5.81-10,12.96-10h187.67c64.88,0,117.46-40.55,117.46-90.59v-29.1c0-11.32-11.9-20.5-26.57-20.5h-128.62c-14.68,0-26.57,9.18-26.57,20.5v29.1c0,11.32-11.9,20.5-26.57,20.5H12.96c-7.15,0-12.96-4.48-12.96-10V62.28C0,27.88,36.15,0,80.75,0h101.01c3.65,0,7.27.08,10.87.25l34.57-.25c33.1,0,64.14,6.83,90.88,18.76,27.6,12.31,50.61,30.05,66.56,51.34,15.47,20.63,24.32,44.56,24.32,70.1Z"/>
      <path class="cls-2" d="m318.09,90.59v29.1c0,50.04-52.58,90.59-117.46,90.59h-31.83c57.36,0,103.84-35.85,103.84-80.09v-50.11c0-5.52-5.81-10-12.96-10h31.83c14.68,0,26.57,9.18,26.57,20.5Z"/>
      <ellipse class="cls-9" cx="62.27" cy="122.78" rx="49.65" ry="13.1"/>
      <g>
        <path class="cls-20" d="m107.93,175.76s0,0,0-.01c0,0,0-.01,0-.02-.08-1.19-.51-2.3-1.21-3.28-.03-.04-.05-.07-.08-.11-.03-.04-.07-.09-.1-.13-.25-.32-.53-.63-.84-.91,0,0,0,0,0,0-4.12-4.61-7.1-9.72-7.39-13.24,0-.01-.02-.02-.03-.02h0s-.03,0-.03.02c-.4,3.56-3.55,8.73-7.82,13.35-.18.17-.35.36-.51.54,0,0,0,0,0,0-.05.06-.1.12-.15.18-.04.04-.07.09-.11.13-.76,1-1.24,2.15-1.34,3.37,0,0,0,.01,0,.02,0,0,0,0,0,.01-.01.15-.02.29-.02.44,0,4.18,4.4,7.57,9.82,7.57s9.82-3.39,9.82-7.57c0-.12,0-.23-.01-.35Z"/>
        <path class="cls-11" d="m98.12,182.09c-4.28,0-7.76-2.69-7.76-5.99,0-.12,0-.24.01-.35v-.05c.08-.94.44-1.83,1.06-2.64h0s.05-.07.08-.1c0,0,.03-.03.03-.04l.43-.35v-.12s.04-.04.06-.06l.03-.03.03-.03c2.59-2.8,4.68-5.66,6.11-8.29,1.34,2.58,3.33,5.39,5.8,8.16l.11.12.03.02.02.02.03.02c.21.21.41.43.59.65h0s.05.07.08.1c.02.03.04.06.06.09.57.8.89,1.66.95,2.57h0s0,.04,0,.04v.02c0,.09,0,.18,0,.27,0,3.3-3.48,5.99-7.76,5.99Z"/>
        <path class="cls-12" d="m101.55,180.42c.56.38,1.58.18,2.28-.43s.81-1.42.25-1.8-1.14-.51-1.84.1-1.25,1.75-.68,2.13Z"/>
        <path class="cls-19" d="m103.94,174.89c0,.44.48,1,1.05,1s1.01-.56,1.01-1-.46-.79-1.03-.79-1.03.36-1.03.79Z"/>
        <path class="cls-6" d="m98.55,163.89c-1.14.93-2.69,2.3-4.35,4.07-1.71,1.83-2.56,2.75-3.14,3.89-1.56,3.06-1.41,7.4,1.47,9.04,1.18.67,2.85.9,3.03.66.17-.23-1.22-.79-2.25-1.86-2.25-2.32-1.36-5.56-1.16-6.29.27-.97.61-1.5,3.22-5.12.82-1.14,1.9-2.64,3.18-4.4Z"/>
      </g>
      <g>
        <path class="cls-20" d="m71.29,196.33s0,0,0-.01c0,0,0,0,0-.01-.05-.83-.35-1.6-.84-2.29-.02-.03-.04-.05-.06-.08-.02-.03-.05-.06-.07-.09-.17-.22-.37-.44-.58-.64,0,0,0,0,0,0-2.87-3.21-4.94-6.77-5.14-9.22,0,0-.01-.02-.02-.02h0s-.02,0-.02.02c-.28,2.48-2.47,6.08-5.45,9.3-.12.12-.24.25-.35.38,0,0,0,0,0,0-.04.04-.07.08-.1.13-.03.03-.05.06-.07.09-.53.7-.86,1.49-.93,2.35,0,0,0,0,0,.01,0,0,0,0,0,0,0,.1-.01.2-.01.31,0,2.91,3.06,5.27,6.84,5.27s6.84-2.36,6.84-5.27c0-.08,0-.16,0-.24Z"/>
        <path class="cls-18" d="m64.46,200.74c-2.98,0-5.4-1.87-5.4-4.17,0-.08,0-.16,0-.24v-.03c.06-.66.3-1.27.74-1.84h0s.03-.05.05-.07c0,0,.02-.02.02-.03l.3-.25v-.08s.03-.03.04-.04l.02-.02.02-.02c1.8-1.95,3.26-3.94,4.26-5.78.94,1.8,2.32,3.76,4.04,5.68l.07.08h.02s.01.03.01.03l.02.02c.15.14.29.3.41.45h0s.04.05.05.07c.01.02.03.04.04.06.4.55.62,1.16.66,1.79h0s0,.03,0,.03h0c0,.07,0,.14,0,.2,0,2.3-2.42,4.17-5.4,4.17Z"/>
        <path class="cls-3" d="m66.85,199.58c.39.26,1.1.13,1.59-.3s.56-.99.17-1.25-.8-.36-1.28.07-.87,1.22-.48,1.48Z"/>
        <path class="cls-10" d="m68.51,195.73c0,.31.33.7.73.7s.7-.39.7-.7-.32-.55-.72-.55-.72.25-.72.55Z"/>
        <path class="cls-16" d="m64.76,188.07c-.79.65-1.88,1.6-3.03,2.83-1.19,1.28-1.78,1.92-2.19,2.71-1.08,2.13-.98,5.15,1.03,6.29.82.47,1.98.63,2.11.46.12-.16-.85-.55-1.57-1.29-1.56-1.62-.95-3.87-.81-4.38.19-.68.43-1.04,2.24-3.56.57-.8,1.33-1.84,2.22-3.06Z"/>
      </g>
      <g>
        <path class="cls-20" d="m40.61,175.76s0,0,0-.01c0,0,0-.01,0-.02-.08-1.19-.51-2.3-1.21-3.28-.03-.04-.05-.07-.08-.11-.03-.04-.07-.09-.1-.13-.25-.32-.53-.63-.84-.91,0,0,0,0,0,0-4.12-4.61-7.1-9.72-7.39-13.24,0-.01-.02-.02-.03-.02h0s-.03,0-.03.02c-.4,3.56-3.55,8.73-7.82,13.35-.18.17-.35.36-.51.54,0,0,0,0,0,0-.05.06-.1.12-.15.18-.04.04-.07.09-.11.13-.76,1-1.24,2.15-1.34,3.37,0,0,0,.01,0,.02,0,0,0,0,0,.01-.01.15-.02.29-.02.44,0,4.18,4.4,7.57,9.82,7.57s9.82-3.39,9.82-7.57c0-.12,0-.23-.01-.35Z"/>
        <path class="cls-21" d="m30.8,182.09c-4.28,0-7.76-2.69-7.76-5.99,0-.12,0-.24.01-.35v-.05c.08-.94.44-1.83,1.06-2.64h0s.05-.07.08-.1c0,0,.03-.03.03-.04l.43-.35v-.12s.04-.04.06-.06l.03-.03.03-.03c2.59-2.8,4.68-5.66,6.11-8.29,1.34,2.58,3.33,5.39,5.8,8.16l.11.12.03.02.02.02.03.02c.21.21.41.43.59.65h0s.05.07.08.1c.02.03.04.06.06.09.57.8.89,1.66.95,2.57h0s0,.04,0,.04v.02c0,.09,0,.18,0,.27,0,3.3-3.48,5.99-7.76,5.99Z"/>
        <path class="cls-14" d="m34.23,180.42c.56.38,1.58.18,2.28-.43s.81-1.42.25-1.8-1.14-.51-1.84.1-1.25,1.75-.68,2.13Z"/>
        <path class="cls-17" d="m36.62,174.89c0,.44.48,1,1.05,1s1.01-.56,1.01-1-.46-.79-1.03-.79-1.03.36-1.03.79Z"/>
        <path class="cls-5" d="m31.23,163.89c-1.14.93-2.69,2.3-4.35,4.07-1.71,1.83-2.56,2.75-3.14,3.89-1.56,3.06-1.41,7.4,1.47,9.04,1.18.67,2.85.9,3.03.66.17-.23-1.22-.79-2.25-1.86-2.25-2.32-1.36-5.56-1.16-6.29.27-.97.61-1.5,3.22-5.12.82-1.14,1.9-2.64,3.18-4.4Z"/>
      </g>
      <g>
        <path class="cls-20" d="m90.01,161.57s0-.03,0-.04c0-.01,0-.03,0-.04-.2-3.09-1.32-6-3.16-8.56-.07-.1-.14-.19-.21-.29-.08-.11-.17-.22-.26-.34-.65-.84-1.38-1.63-2.18-2.38,0,0,0,0,0,0-10.74-12.02-18.49-25.33-19.25-34.49,0-.03-.04-.06-.09-.06h0s-.08.03-.09.06c-1.04,9.28-9.26,22.76-20.38,34.8-.47.45-.91.93-1.32,1.41,0,0,0,0,0,0-.13.15-.26.31-.39.47-.09.12-.19.23-.28.35-1.99,2.6-3.23,5.59-3.49,8.78,0,.01,0,.03,0,.04,0,.01,0,.02,0,.03-.03.38-.04.77-.04,1.15,0,10.9,11.45,19.73,25.58,19.73s25.58-8.83,25.58-19.73c0-.3,0-.61-.03-.9Z"/>
        <path class="cls-13" d="m64.46,178.07c-11.15,0-20.22-7-20.22-15.6,0-.31.01-.61.03-.91v-.13c.22-2.45,1.14-4.76,2.76-6.87h.01c.06-.09.13-.18.2-.26,0,0,.07-.08.09-.11l1.11-.92v-.31c.06-.05.11-.11.17-.16l.08-.08.08-.09c6.75-7.3,12.2-14.76,15.92-21.61,3.5,6.73,8.67,14.06,15.1,21.25l.28.31.07.05.04.04.08.06c.56.54,1.08,1.11,1.53,1.7h0c.07.1.13.18.2.27.05.07.11.15.16.22,1.49,2.07,2.32,4.32,2.49,6.69v.1s0,.04,0,.04c.01.23.02.47.02.71,0,8.6-9.07,15.6-20.22,15.6Z"/>
        <path class="cls-1" d="m73.39,173.71c1.46.98,4.12.48,5.94-1.13s2.11-3.71.64-4.69-2.98-1.34-4.8.27-3.25,4.57-1.78,5.55Z"/>
        <path class="cls-7" d="m79.63,159.31c0,1.14,1.25,2.61,2.73,2.61s2.63-1.47,2.63-2.61-1.2-2.07-2.68-2.07-2.68.93-2.68,2.07Z"/>
        <path class="cls-8" d="m65.57,130.65c-2.96,2.44-7.02,6-11.32,10.61-4.46,4.78-6.68,7.17-8.19,10.14-4.06,7.96-3.67,19.28,3.84,23.55,3.08,1.75,7.42,2.35,7.89,1.72.45-.6-3.17-2.05-5.86-4.84-5.85-6.05-3.55-14.48-3.03-16.38.69-2.54,1.6-3.9,8.39-13.34,2.15-2.98,4.96-6.88,8.29-11.46Z"/>
      </g>
    </g>
    <path class="cls-4" d="m372.79,67.17c-5.23.04,21.06,80.45-35.34,136.3-79.32,78.53-266.06,52.91-265.92,57.11.15,4.38,203.48,46.81,286.11-38.94,59.86-62.12,20.75-154.51,15.15-154.47Z"/>
  </g>
  <text class="cls-23" transform="translate(15.1 369.21) scale(1.3 1)"><tspan x="0" y="0">JUST START IT</tspan></text>
  <text class="cls-25" transform="translate(14.3 340.56) scale(1.3 1)"><tspan class="cls-24" x="0" y="0">DROPY</tspan><tspan class="cls-22" x="161.86" y="0">DROP</tspan></text>
</svg>