<?xml version="1.0" encoding="UTF-8"?>
<svg id="Layer_1" data-name="Layer 1" xmlns="http://www.w3.org/2000/svg" xmlns:xlink="http://www.w3.org/1999/xlink" viewBox="0 0 319.37 295.54">
  <defs>
    <style>
      .cls-1 {
        font-size: 39.5px;
      }

      .cls-2 {
        fill: url(#linear-gradient-12);
      }

      .cls-2, .cls-3, .cls-4, .cls-5, .cls-6, .cls-7, .cls-8, .cls-9, .cls-10, .cls-11, .cls-12, .cls-13, .cls-14, .cls-15, .cls-16, .cls-17, .cls-18, .cls-19, .cls-20, .cls-21, .cls-22 {
        stroke-width: 0px;
      }

      .cls-3 {
        fill: url(#linear-gradient);
      }

      .cls-4 {
        fill: url(#linear-gradient-6);
      }

      .cls-23, .cls-24 {
        font-family: SimplifiedArabic, 'Simplified Arabic';
      }

      .cls-25 {
        font-family: SimplifiedArabic-Bold, 'Simplified Arabic';
        font-weight: 700;
      }

      .cls-5 {
        fill: url(#linear-gradient-15);
      }

      .cls-6 {
        fill: url(#linear-gradient-11);
      }

      .cls-7 {
        fill: url(#linear-gradient-5);
      }

      .cls-8 {
        fill: url(#linear-gradient-13);
      }

      .cls-24 {
        font-size: 15.1px;
      }

      .cls-9 {
        fill: url(#linear-gradient-14);
      }

      .cls-10 {
        fill: url(#linear-gradient-2);
      }

      .cls-11 {
        fill: url(#linear-gradient-7);
      }

      .cls-12 {
        fill: url(#radial-gradient-2);
      }

      .cls-13 {
        fill: url(#linear-gradient-3);
      }

      .cls-14 {
        fill: url(#radial-gradient-5);
      }

      .cls-15 {
        fill: url(#linear-gradient-9);
      }

      .cls-16 {
        fill: url(#radial-gradient);
      }

      .cls-17 {
        fill: url(#linear-gradient-8);
      }

      .cls-18 {
        fill: url(#linear-gradient-10);
      }

      .cls-19 {
        fill: url(#radial-gradient-3);
      }

      .cls-20 {
        fill: url(#linear-gradient-4);
      }

      .cls-21 {
        fill: #3fa9f5;
      }

      .cls-22 {
        fill: url(#radial-gradient-4);
      }
    </style>
    <radialGradient id="radial-gradient" cx="131.2" cy="115.68" fx="131.2" fy="115.68" r="123.45" gradientTransform="translate(-.87 .29) scale(1.22 .94)" gradientUnits="userSpaceOnUse">
      <stop offset="0" stop-color="#fff"/>
      <stop offset=".47" stop-color="#00b8f8"/>
      <stop offset="1" stop-color="#0171ea"/>
    </radialGradient>
    <linearGradient id="linear-gradient" x1="247.56" y1="112.65" x2="134.5" y2="107.33" gradientUnits="userSpaceOnUse">
      <stop offset="0" stop-color="#cce0f4"/>
      <stop offset=".1" stop-color="#c2def4"/>
      <stop offset=".27" stop-color="#a9dbf5"/>
      <stop offset=".48" stop-color="#7fd5f6"/>
      <stop offset=".73" stop-color="#45cef9"/>
      <stop offset="1" stop-color="#00c5fc"/>
    </linearGradient>
    <linearGradient id="linear-gradient-2" x1="87.32" y1="97.7" x2="9.94" y2="94.06" gradientUnits="userSpaceOnUse">
      <stop offset="0" stop-color="#cce0f4"/>
      <stop offset=".04" stop-color="#c2dcf2"/>
      <stop offset=".11" stop-color="#a9d2ee"/>
      <stop offset=".2" stop-color="#7fc2e7"/>
      <stop offset=".3" stop-color="#46abdd"/>
      <stop offset=".37" stop-color="#1e9cd7"/>
      <stop offset=".71" stop-color="#0075be"/>
      <stop offset=".94" stop-color="#005b97"/>
    </linearGradient>
    <radialGradient id="radial-gradient-2" cx="63.47" cy="142.34" fx="63.47" fy="142.34" r="11.15" gradientTransform="translate(-.87 .29) scale(1.22 .94)" gradientUnits="userSpaceOnUse">
      <stop offset="0" stop-color="#fff"/>
      <stop offset=".69" stop-color="#3fa9f5"/>
    </radialGradient>
    <linearGradient id="linear-gradient-3" x1="79.12" y1="139.97" x2="81.55" y2="139.97" gradientUnits="userSpaceOnUse">
      <stop offset="0" stop-color="#fff"/>
      <stop offset="1" stop-color="#fff" stop-opacity=".3"/>
    </linearGradient>
    <linearGradient id="linear-gradient-4" x1="81.17" y1="136.66" x2="82.77" y2="136.66" xlink:href="#linear-gradient-3"/>
    <linearGradient id="linear-gradient-5" x1="69.33" y1="134.92" x2="75.95" y2="134.92" gradientUnits="userSpaceOnUse">
      <stop offset="0" stop-color="#fff"/>
      <stop offset=".76" stop-color="#fff" stop-opacity=".3"/>
    </linearGradient>
    <radialGradient id="radial-gradient-3" cx="41.94" cy="160.21" fx="41.94" fy="160.21" r="7.76" xlink:href="#radial-gradient-2"/>
    <linearGradient id="linear-gradient-6" x1="52.08" y1="155.21" x2="53.77" y2="155.21" xlink:href="#linear-gradient-3"/>
    <linearGradient id="linear-gradient-7" x1="53.5" y1="152.91" x2="54.62" y2="152.91" xlink:href="#linear-gradient-3"/>
    <linearGradient id="linear-gradient-8" x1="45.26" y1="151.69" x2="49.87" y2="151.69" xlink:href="#linear-gradient-5"/>
    <radialGradient id="radial-gradient-4" cx="20.51" fx="20.51" r="11.15" xlink:href="#radial-gradient-2"/>
    <linearGradient id="linear-gradient-9" x1="26.55" x2="28.98" xlink:href="#linear-gradient-3"/>
    <linearGradient id="linear-gradient-10" x1="28.6" y1="136.66" x2="30.2" y2="136.66" xlink:href="#linear-gradient-3"/>
    <linearGradient id="linear-gradient-11" x1="16.76" x2="23.38" xlink:href="#linear-gradient-5"/>
    <radialGradient id="radial-gradient-5" cx="42.22" cy="126.16" fx="42.22" fy="126.16" r="29.05" xlink:href="#radial-gradient-2"/>
    <linearGradient id="linear-gradient-12" x1="56.84" y1="133.25" x2="63.18" y2="133.25" xlink:href="#linear-gradient-3"/>
    <linearGradient id="linear-gradient-13" x1="62.18" y1="124.62" x2="66.37" y2="124.62" xlink:href="#linear-gradient-3"/>
    <linearGradient id="linear-gradient-14" x1="31.35" y1="120.09" x2="48.59" y2="120.09" xlink:href="#linear-gradient-5"/>
    <linearGradient id="linear-gradient-15" x1="384.03" y1="96.78" x2="-207.72" y2="245.9" gradientUnits="userSpaceOnUse">
      <stop offset="0" stop-color="#fff"/>
      <stop offset="1" stop-color="#06c3fb"/>
    </linearGradient>
  </defs>
  <g>
    <g>
      <path class="cls-16" d="m319.37,109.48c0,19.94-6.91,38.63-18.99,54.74-12.46,16.62-30.43,30.48-51.98,40.09-20.88,9.32-45.12,14.65-70.97,14.65H10.12c-5.59,0-10.12-3.5-10.12-7.81v-39.13c0-4.31,4.53-7.81,10.12-7.81h146.56c50.67,0,91.72-31.67,91.72-70.74v-22.73c0-8.84-9.29-16.01-20.75-16.01h-100.44c-11.46,0-20.75,7.17-20.75,16.01v22.73c0,8.84-9.29,16.01-20.75,16.01H10.12c-5.59,0-10.12-3.5-10.12-7.81v-53.03C0,21.77,28.23,0,63.06,0h78.88c2.85,0,5.68.06,8.49.19l27-.19c25.85,0,50.09,5.33,70.97,14.65,21.55,9.61,39.52,23.47,51.98,40.09,12.08,16.11,18.99,34.8,18.99,54.74Z"/>
      <path class="cls-3" d="m248.4,70.74v22.73c0,39.08-41.06,70.74-91.72,70.74h-24.85c44.79,0,81.09-28,81.09-62.54v-39.13c0-4.31-4.53-7.81-10.12-7.81h24.85c11.46,0,20.75,7.17,20.75,16.01Z"/>
      <ellipse class="cls-10" cx="48.63" cy="95.88" rx="38.77" ry="10.23"/>
      <g>
        <path class="cls-21" d="m84.28,137.25s0,0,0-.01c0,0,0,0,0-.01-.06-.93-.4-1.8-.95-2.57-.02-.03-.04-.06-.06-.09-.03-.03-.05-.07-.08-.1-.2-.25-.41-.49-.65-.71,0,0,0,0,0,0-3.22-3.6-5.54-7.59-5.77-10.34,0-.01-.01-.02-.03-.02h0s-.02,0-.03.02c-.31,2.78-2.77,6.82-6.11,10.43-.14.14-.27.28-.4.42,0,0,0,0,0,0-.04.05-.08.09-.12.14-.03.03-.06.07-.08.11-.6.78-.97,1.68-1.04,2.63,0,0,0,0,0,.01,0,0,0,0,0,0,0,.11-.01.23-.01.35,0,3.27,3.43,5.91,7.67,5.91s7.67-2.65,7.67-5.91c0-.09,0-.18,0-.27Z"/>
        <path class="cls-12" d="m76.62,142.19c-3.34,0-6.06-2.1-6.06-4.67,0-.09,0-.18.01-.27v-.04c.07-.73.34-1.43.83-2.06h0s.04-.05.06-.08c0,0,.02-.02.03-.03l.33-.28v-.09s.03-.03.05-.05l.03-.02.02-.03c2.02-2.19,3.66-4.42,4.77-6.48,1.05,2.02,2.6,4.21,4.53,6.37l.08.09.02.02h.01s.02.03.02.03c.17.16.32.33.46.51h0s.04.05.06.08c.02.02.03.04.05.07.45.62.7,1.3.75,2.01h0s0,.03,0,.03h0c0,.08,0,.15,0,.23,0,2.58-2.72,4.67-6.06,4.67Z"/>
        <path class="cls-13" d="m79.3,140.89c.44.29,1.24.14,1.78-.34s.63-1.11.19-1.41-.89-.4-1.44.08-.97,1.37-.53,1.66Z"/>
        <path class="cls-20" d="m81.17,136.57c0,.34.37.78.82.78s.79-.44.79-.78-.36-.62-.8-.62-.8.28-.8.62Z"/>
        <path class="cls-7" d="m76.96,127.98c-.89.73-2.1,1.8-3.39,3.18-1.34,1.43-2,2.15-2.45,3.04-1.22,2.39-1.1,5.78,1.15,7.06.92.52,2.22.7,2.36.51.13-.18-.95-.62-1.76-1.45-1.75-1.81-1.06-4.34-.91-4.91.21-.76.48-1.17,2.52-4,.64-.89,1.49-2.06,2.48-3.44Z"/>
      </g>
      <g>
        <path class="cls-21" d="m55.67,153.32s0,0,0,0c0,0,0,0,0,0-.04-.65-.28-1.25-.66-1.79-.01-.02-.03-.04-.04-.06-.02-.02-.04-.05-.05-.07-.14-.17-.29-.34-.46-.5,0,0,0,0,0,0-2.24-2.51-3.86-5.29-4.02-7.2,0,0,0-.01-.02-.01h0s-.02,0-.02.01c-.22,1.94-1.93,4.75-4.25,7.26-.1.09-.19.19-.28.29,0,0,0,0,0,0-.03.03-.05.06-.08.1-.02.02-.04.05-.06.07-.42.54-.67,1.17-.73,1.83,0,0,0,0,0,0,0,0,0,0,0,0,0,.08,0,.16,0,.24,0,2.27,2.39,4.12,5.34,4.12s5.34-1.84,5.34-4.12c0-.06,0-.13,0-.19Z"/>
        <path class="cls-19" d="m50.34,156.76c-2.33,0-4.22-1.46-4.22-3.26,0-.06,0-.13,0-.19v-.03c.05-.51.24-.99.58-1.43h0s.03-.04.04-.05c0,0,.01-.02.02-.02l.23-.19v-.06s.02-.02.03-.03l.02-.02.02-.02c1.41-1.52,2.55-3.08,3.32-4.51.73,1.41,1.81,2.93,3.15,4.44l.06.06h.01s0,.02,0,.02h.02c.12.13.22.24.32.37h0s.03.04.04.06c.01.01.02.03.03.05.31.43.49.9.52,1.4h0s0,.02,0,.02h0c0,.06,0,.11,0,.16,0,1.79-1.89,3.26-4.22,3.26Z"/>
        <path class="cls-4" d="m52.2,155.85c.31.21.86.1,1.24-.24s.44-.77.13-.98-.62-.28-1,.06-.68.95-.37,1.16Z"/>
        <path class="cls-11" d="m53.5,152.85c0,.24.26.55.57.55s.55-.31.55-.55-.25-.43-.56-.43-.56.19-.56.43Z"/>
        <path class="cls-17" d="m50.57,146.87c-.62.51-1.46,1.25-2.36,2.21-.93,1-1.39,1.5-1.71,2.12-.85,1.66-.77,4.02.8,4.92.64.36,1.55.49,1.65.36.09-.13-.66-.43-1.22-1.01-1.22-1.26-.74-3.02-.63-3.42.14-.53.33-.81,1.75-2.78.45-.62,1.04-1.44,1.73-2.39Z"/>
      </g>
      <g>
        <path class="cls-21" d="m31.71,137.25s0,0,0-.01c0,0,0,0,0-.01-.06-.93-.4-1.8-.95-2.57-.02-.03-.04-.06-.06-.09-.03-.03-.05-.07-.08-.1-.2-.25-.41-.49-.65-.71,0,0,0,0,0,0-3.22-3.6-5.54-7.59-5.77-10.34,0-.01-.01-.02-.03-.02h0s-.02,0-.03.02c-.31,2.78-2.77,6.82-6.11,10.43-.14.14-.27.28-.4.42,0,0,0,0,0,0-.04.05-.08.09-.12.14-.03.03-.06.07-.08.11-.6.78-.97,1.68-1.04,2.63,0,0,0,0,0,.01,0,0,0,0,0,0,0,.11-.01.23-.01.35,0,3.27,3.43,5.91,7.67,5.91s7.67-2.65,7.67-5.91c0-.09,0-.18,0-.27Z"/>
        <path class="cls-22" d="m24.05,142.19c-3.34,0-6.06-2.1-6.06-4.67,0-.09,0-.18.01-.27v-.04c.07-.73.34-1.43.83-2.06h0s.04-.05.06-.08c0,0,.02-.02.03-.03l.33-.28v-.09s.03-.03.05-.05l.03-.02.02-.03c2.02-2.19,3.66-4.42,4.77-6.48,1.05,2.02,2.6,4.21,4.53,6.37l.08.09.02.02h.01s.02.03.02.03c.17.16.32.33.46.51h0s.04.05.06.08c.02.02.03.04.05.07.45.62.7,1.3.75,2.01h0s0,.03,0,.03h0c0,.08,0,.15,0,.23,0,2.58-2.72,4.67-6.06,4.67Z"/>
        <path class="cls-15" d="m26.73,140.89c.44.29,1.24.14,1.78-.34s.63-1.11.19-1.41-.89-.4-1.44.08-.97,1.37-.53,1.66Z"/>
        <path class="cls-18" d="m28.6,136.57c0,.34.37.78.82.78s.79-.44.79-.78-.36-.62-.8-.62-.8.28-.8.62Z"/>
        <path class="cls-6" d="m24.38,127.98c-.89.73-2.1,1.8-3.39,3.18-1.34,1.43-2,2.15-2.45,3.04-1.22,2.39-1.1,5.78,1.15,7.06.92.52,2.22.7,2.36.51.13-.18-.95-.62-1.76-1.45-1.75-1.81-1.06-4.34-.91-4.91.21-.76.48-1.17,2.52-4,.64-.89,1.49-2.06,2.48-3.44Z"/>
      </g>
      <g>
        <path class="cls-21" d="m70.29,126.17s0-.02,0-.03c0-.01,0-.02,0-.03-.15-2.42-1.03-4.69-2.46-6.68-.05-.07-.11-.15-.16-.22-.07-.09-.13-.18-.2-.26-.51-.65-1.08-1.27-1.7-1.86,0,0,0,0,0,0-8.39-9.38-14.44-19.78-15.03-26.93,0-.03-.03-.05-.07-.05h0s-.06.02-.07.05c-.81,7.25-7.23,17.77-15.91,27.17-.36.36-.71.72-1.03,1.1,0,0,0,0,0,0-.1.12-.2.24-.3.37-.07.09-.15.18-.22.27-1.56,2.03-2.52,4.37-2.72,6.86,0,.01,0,.02,0,.03,0,0,0,.02,0,.02-.02.3-.03.6-.03.9,0,8.51,8.94,15.41,19.98,15.41s19.98-6.9,19.98-15.41c0-.24,0-.47-.02-.71Z"/>
        <path class="cls-14" d="m50.34,139.05c-8.71,0-15.79-5.46-15.79-12.18,0-.24,0-.48.03-.71v-.1c.17-1.91.89-3.72,2.15-5.37h0c.05-.07.1-.14.15-.21,0,0,.05-.06.07-.09l.87-.72v-.24s.09-.09.13-.13l.07-.06.06-.07c5.27-5.7,9.53-11.52,12.43-16.87,2.74,5.26,6.77,10.98,11.79,16.6l.22.24.06.04.03.03.07.05c.44.42.84.87,1.2,1.33h0c.05.07.1.14.15.21.04.05.08.11.13.17,1.16,1.62,1.81,3.38,1.94,5.23v.08s0,.03,0,.03c.01.18.02.37.02.56,0,6.72-7.08,12.18-15.79,12.18Z"/>
        <path class="cls-2" d="m57.31,135.65c1.14.77,3.22.37,4.64-.88s1.64-2.89.5-3.66-2.33-1.05-3.75.21-2.53,3.57-1.39,4.33Z"/>
        <path class="cls-8" d="m62.18,124.41c0,.89.98,2.04,2.13,2.04s2.05-1.15,2.05-2.04-.94-1.61-2.09-1.61-2.09.72-2.09,1.61Z"/>
        <path class="cls-9" d="m51.21,102.03c-2.31,1.9-5.48,4.68-8.84,8.28-3.49,3.73-5.21,5.6-6.4,7.92-3.17,6.22-2.87,15.06,3,18.39,2.41,1.37,5.79,1.83,6.16,1.34.35-.47-2.48-1.6-4.58-3.78-4.57-4.72-2.77-11.31-2.37-12.79.54-1.98,1.25-3.04,6.55-10.41,1.68-2.33,3.87-5.37,6.47-8.95Z"/>
      </g>
    </g>
    <path class="cls-5" d="m291.11,52.46c-4.08.03,16.45,62.83-27.6,106.43-61.94,61.33-207.77,41.32-207.66,44.6.12,3.42,158.9,36.55,223.43-30.41,46.75-48.51,16.21-120.66,11.83-120.63Z"/>
  </g>
  <text class="cls-24" transform="translate(11.8 288.32) scale(1.3 1)"><tspan x="0" y="0">JUST START IT</tspan></text>
  <text class="cls-1" transform="translate(11.17 265.95) scale(1.3 1)"><tspan class="cls-25" x="0" y="0">DROPY</tspan><tspan class="cls-23" x="126.4" y="0">DROP</tspan></text>
</svg>