<?xml version="1.0" encoding="UTF-8" standalone="no"?>
<svg
   width="643"
   height="447.57028"
   viewBox="0 0 643 447.57029"
   role="img"
   artist="Katerina Limpitsouni"
   source="https://undraw.co/"
   version="1.1"
   id="svg8"
   xml:space="preserve"
   xmlns="http://www.w3.org/2000/svg"
   xmlns:svg="http://www.w3.org/2000/svg"><defs
     id="defs8" /><path
     d="M 613.07193,87.06347 H 29.92806 A 29.96193,29.96193 0 0 1 0,57.1354 V 29.92807 A 29.96193,29.96193 0 0 1 29.92806,0 H 613.07193 A 29.96193,29.96193 0 0 1 643,29.92807 V 57.1354 A 29.96193,29.96193 0 0 1 613.07193,87.06347 Z M 29.92806,1.81382 A 28.14617,28.14617 0 0 0 1.81382,29.92807 V 57.1354 A 28.14617,28.14617 0 0 0 29.92806,85.24965 H 613.07193 A 28.14617,28.14617 0 0 0 641.18617,57.1354 V 29.92807 A 28.14617,28.14617 0 0 0 613.07193,1.81382 Z"
     fill="#3f3d56"
     id="path1" /><rect
     x="57.135399"
     y="26.300421"
     width="421.71368"
     height="34.46262"
     rx="17.231291"
     fill="#e6e6e6"
     id="rect1" /><rect
     x="107.92243"
     y="177.43018"
     width="421.71368"
     height="34.46262"
     rx="17.231291"
     fill="#6c63ff"
     id="rect2" /><rect
     x="107.92243"
     y="287.00424"
     width="421.71368"
     height="34.46262"
     rx="17.231291"
     fill="#e6e6e6"
     id="rect3" /><rect
     x="107.92243"
     y="396.57828"
     width="421.71368"
     height="34.46262"
     rx="17.231291"
     fill="#e6e6e6"
     id="rect4" /><path
     d="m 586.31236,62.14737 a 2.71409,2.71409 0 0 1 -3.7799,0.66654 L 567.72579,52.51116 a 2.7140302,2.7140302 0 1 1 3.11336,-4.44644 l 14.80667,10.30275 a 2.71408,2.71408 0 0 1 0.66654,3.7799 z"
     fill="#6c63ff"
     id="path4" /><path
     d="m 569.50245,50.44195 a 19.26672,19.26672 0 1 1 -4.73174,-26.83326 19.28854,19.28854 0 0 1 4.73174,26.83326 z M 541.88308,31.10312 a 14.45,14.45 0 1 0 20.12494,-3.5488 14.46638,14.46638 0 0 0 -20.12496,3.5488 z"
     fill="#6c63ff"
     id="path5" /><path
     d="M 596.29407,228.3323 H 46.70592 a 0.90691,0.90691 0 1 1 0,-1.81382 h 549.58815 a 0.90691,0.90691 0 1 1 0,1.81382 z"
     fill="#3f3d56"
     id="path6" /><path
     d="M 596.29407,337.95152 H 46.70592 a 0.90691,0.90691 0 0 1 0,-1.81382 h 549.58815 a 0.90691,0.90691 0 0 1 0,1.81382 z"
     fill="#3f3d56"
     id="path7" /><path
     d="M 596.29407,447.57029 H 46.70592 a 0.90691,0.90691 0 0 1 0,-1.81382 h 549.58815 a 0.90691,0.90691 0 1 1 0,1.81382 z"
     fill="#3f3d56"
     id="path8" /><path
     style="opacity:1;fill:#ffb902;fill-opacity:1;stroke:none;stroke-width:6.97108;stroke-linecap:round;stroke-linejoin:round;paint-order:markers fill stroke"
     id="path16"
     d="m -262.55137,364.56178 5.7011,-92.88252 -89.30007,-26.17561 90.09827,-23.28021 -2.70076,-93.01812 49.98269,78.49455 87.63091,-31.31275 -59.20726,71.79252 56.85964,73.66578 -86.57479,-34.12435 z"
     transform="matrix(0.13023732,0.04475188,-0.04475188,0.13023732,343.23603,173.50279)" /><text
     xml:space="preserve"
     style="font-size:32.3645px;line-height:0px;font-family:'Berlin Sans FB';-inkscape-font-specification:'Berlin Sans FB';text-align:end;writing-mode:lr-tb;direction:ltr;text-anchor:end;fill:#000000;fill-opacity:1;stroke:#00ff00;stroke-width:0.96;stroke-linecap:round;stroke-linejoin:round;paint-order:markers fill stroke"
     x="288.04144"
     y="203.45229"
     id="text9"><tspan
       id="tspan9"
       x="288.04144"
       y="203.45229"
       style="font-style:normal;font-variant:normal;font-weight:bold;font-stretch:normal;font-family:'Barlow Condensed';-inkscape-font-specification:'Barlow Condensed,  Bold';fill:#000000;fill-opacity:1;stroke:none;stroke-width:0.96">yoursite</tspan></text><text
     xml:space="preserve"
     style="font-size:27.0352px;line-height:0px;font-family:'Berlin Sans FB';-inkscape-font-specification:'Berlin Sans FB';text-align:end;writing-mode:lr-tb;direction:ltr;text-anchor:end;fill:#000000;fill-opacity:1;stroke:#00ff00;stroke-width:0.959999;stroke-linecap:round;stroke-linejoin:round;paint-order:markers fill stroke"
     x="273.43781"
     y="55.383049"
     id="text8"><tspan
       id="tspan8"
       x="273.43781"
       y="55.383049"
       style="font-style:normal;font-variant:normal;font-weight:bold;font-stretch:condensed;font-family:'Barlow Condensed';-inkscape-font-specification:'Barlow Condensed,  Bold Condensed';fill:#000000;fill-opacity:1;stroke:none;stroke-width:0.959999">www.yoursite .com</tspan></text></svg>
